<?xml version="1.0" encoding="UTF-8" standalone="no"?>
<!-- Created with Inkscape (http://www.inkscape.org/) -->
<svg
   xmlns:xml="http://www.w3.org/XML/1998/namespace"
   xmlns:dc="http://purl.org/dc/elements/1.1/"
   xmlns:cc="http://web.resource.org/cc/"
   xmlns:rdf="http://www.w3.org/1999/02/22-rdf-syntax-ns#"
   xmlns:svg="http://www.w3.org/2000/svg"
   xmlns="http://www.w3.org/2000/svg"
   xmlns:sodipodi="http://inkscape.sourceforge.net/DTD/sodipodi-0.dtd"
   xmlns:inkscape="http://www.inkscape.org/namespaces/inkscape"
   inkscape:export-ydpi="54.000000"
   inkscape:export-xdpi="54.000000"
   inkscape:export-filename="F:\Documents\AJ\xmmslogos\flame1.png"
   sodipodi:docname="flame1.svg"
   sodipodi:docbase="F:\Documents\AJ\xmmslogos"
   inkscape:version="0.40+cvs"
   sodipodi:version="0.32"
   id="svg2623"
   height="1052.3622047"
   width="744.09448819">
  <defs
     id="defs3" />
  <sodipodi:namedview
     inkscape:window-y="0"
     inkscape:window-x="0"
     inkscape:window-height="866"
     inkscape:window-width="945"
     inkscape:guide-bbox="true"
     showguides="true"
     inkscape:current-layer="g2906"
     inkscape:document-units="px"
     inkscape:cy="433.86797"
     inkscape:cx="363.28709"
     inkscape:zoom="0.35000000"
     inkscape:pageshadow="2"
     inkscape:pageopacity="0.0"
     borderopacity="1.0"
     bordercolor="#666666"
     pagecolor="#ffffff"
     id="base" />
  <metadata
     id="metadata4">
    <rdf:RDF
       id="RDF5">
      <cc:Work
         id="Work6"
         rdf:about="">
        <dc:format
           id="format7">image/svg+xml</dc:format>
        <dc:type
           rdf:resource="http://purl.org/dc/dcmitype/StillImage"
           id="type9" />
      </cc:Work>
    </rdf:RDF>
  </metadata>
  <g
     id="layer1"
     inkscape:groupmode="layer"
     inkscape:label="Layer 1">
    <rect
       style="fill:#ffffff;fill-opacity:1.0000000;stroke:#000000;stroke-width:3.7499993;stroke-linecap:round;stroke-linejoin:round;stroke-miterlimit:4.0000000;stroke-dasharray:none;stroke-opacity:1.0000000"
       id="rect2621"
       width="772.49304"
       height="1092.7587"
       x="-9.1037245"
       y="-14.017267"
       rx="11.067083"
       ry="16.124691" />
    <g
       transform="translate(368.5400,-235.9000)"
       id="g2930">
      <path
         sodipodi:nodetypes="cszzsz"
         id="path2649"
         d="M 101.29871,782.70678 C -26.481169,723.19324 44.878374,548.39351 176.96800,456.18543 C 256.13643,400.92016 148.52263,491.65406 191.47327,515.78893 C 235.02028,540.25892 265.64227,470.13743 255.20774,499.69750 C 244.60544,529.73285 221.78526,560.25404 256.67946,613.18236 C 308.30150,691.48385 230.25136,842.76653 101.29871,782.70678 z "
         style="fill:#d23000;fill-opacity:1.0000000;fill-rule:evenodd;stroke:none;stroke-width:1.0000000px;stroke-linecap:butt;stroke-linejoin:miter;stroke-opacity:1.0000000" />
      <path
         sodipodi:type="arc"
         style="fill:#ffffff;fill-opacity:1.0000000;stroke:none;stroke-width:3.7500000;stroke-linecap:round;stroke-linejoin:round;stroke-miterlimit:4.0000000;stroke-dasharray:none;stroke-opacity:1.0000000"
         id="path2690"
         sodipodi:cx="113.57143"
         sodipodi:cy="688.07648"
         sodipodi:rx="73.571426"
         sodipodi:ry="90.000000"
         d="M 187.14285 688.07648 A 73.571426 90.000000 0 1 1  40.000000,688.07648 A 73.571426 90.000000 0 1 1  187.14285 688.07648 z"
         transform="matrix(1.000000,0.110982,0.000000,0.952598,7.489486,16.56262)" />
      <path
         style="fill:#646464;fill-opacity:1.0000000;stroke:none;stroke-width:3.7500000;stroke-linecap:round;stroke-linejoin:round;stroke-miterlimit:4.0000000;stroke-dasharray:none;stroke-opacity:1.0000000"
         d="M 114.15467,605.60469 C 90.993690,605.77793 71.351534,620.01682 61.123415,641.91719 C 73.913433,630.27853 90.608323,624.16441 108.93592,626.19844 C 149.05965,630.65144 181.62342,672.19171 181.62342,718.94844 C 181.62342,721.56380 181.47907,724.13418 181.27967,726.66719 C 185.89356,716.53620 188.56092,704.83612 188.56092,692.10469 C 188.56092,648.67831 158.32674,610.08429 121.06092,605.94844 C 118.73181,605.68995 116.42326,605.58772 114.15467,605.60469 z "
         id="path2702" />
      <path
         sodipodi:type="arc"
         style="fill:#646464;fill-opacity:1.0000000;stroke:none;stroke-width:3.7500000;stroke-linecap:round;stroke-linejoin:round;stroke-miterlimit:4.0000000;stroke-dasharray:none;stroke-opacity:1.0000000"
         id="path2707"
         sodipodi:cx="119.19800"
         sodipodi:cy="702.84943"
         sodipodi:rx="26.263966"
         sodipodi:ry="34.345188"
         d="M 145.46196 702.84943 A 26.263966 34.345188 0 1 1  92.934032,702.84943 A 26.263966 34.345188 0 1 1  145.46196 702.84943 z"
         transform="matrix(1.192308,0.235200,0.000000,1.175247,-27.38172,-165.1045)" />
      <path
         transform="matrix(0.494836,-8.154033e-2,0.000000,0.361295,43.63372,424.5325)"
         d="M 145.46196 702.84943 A 26.263966 34.345188 0 1 1  92.934032,702.84943 A 26.263966 34.345188 0 1 1  145.46196 702.84943 z"
         sodipodi:ry="34.345188"
         sodipodi:rx="26.263966"
         sodipodi:cy="702.84943"
         sodipodi:cx="119.19800"
         id="path2709"
         style="fill:#ffffff;fill-opacity:1.0000000;stroke:none;stroke-width:3.7500000;stroke-linecap:round;stroke-linejoin:round;stroke-miterlimit:4.0000000;stroke-dasharray:none;stroke-opacity:1.0000000"
         sodipodi:type="arc" />
    </g>
    <g
       transform="translate(23.59690,600.1499)"
       id="g2906">
      <path
         style="fill:#d23000;fill-opacity:1.0000000;fill-rule:evenodd;stroke:none;stroke-width:1.0000000px;stroke-linecap:butt;stroke-linejoin:miter;stroke-opacity:1.0000000"
         d="M 105.33932,362.50373 C -22.440559,302.99019 56.061841,131.04760 181.00861,35.982382 C 257.84670,-22.479548 152.56324,71.451014 195.51388,95.585884 C 239.06089,120.05587 269.68288,49.934382 259.24835,79.494454 C 248.64605,109.52980 225.82587,140.05099 260.72007,192.97931 C 312.34211,271.28080 234.29197,422.56348 105.33932,362.50373 z "
         id="path2633"
         sodipodi:nodetypes="cszzsz" />
      <path
         sodipodi:type="arc"
         style="fill:#ffffff;fill-opacity:1.0000000;stroke:none;stroke-width:3.7500000;stroke-linecap:round;stroke-linejoin:round;stroke-miterlimit:4.0000000;stroke-dasharray:none;stroke-opacity:1.0000000"
         id="path2635"
         sodipodi:cx="387.85715"
         sodipodi:cy="629.50507"
         sodipodi:rx="90.714287"
         sodipodi:ry="85.714287"
         d="M 478.57143 629.50507 A 90.714287 85.714287 0 1 1  297.14286,629.50507 A 90.714287 85.714287 0 1 1  478.57143 629.50507 z"
         transform="matrix(0.984252,0.000000,0.000000,1.083333,-216.6476,-416.1107)" />
      <path
         sodipodi:type="arc"
         style="fill:#6b6b6b;fill-opacity:1.0000000;stroke:none;stroke-width:3.7500000;stroke-linecap:round;stroke-linejoin:round;stroke-miterlimit:4.0000000;stroke-dasharray:none;stroke-opacity:1.0000000"
         id="path2637"
         sodipodi:cx="368.57144"
         sodipodi:cy="673.79077"
         sodipodi:rx="35.714287"
         sodipodi:ry="34.285713"
         d="M 404.28573 673.79077 A 35.714287 34.285713 0 1 1  332.85715,673.79077 A 35.714287 34.285713 0 1 1  404.28573 673.79077 z"
         transform="matrix(1.000000,0.000000,0.000000,1.041667,-205.6128,-433.1552)" />
      <path
         style="fill:#646464;fill-opacity:1.0000000;stroke:none;stroke-width:3.7500000;stroke-linecap:round;stroke-linejoin:round;stroke-miterlimit:4.0000000;stroke-dasharray:none;stroke-opacity:1.0000000"
         d="M 165.09707,182.12932 C 119.60258,182.12932 82.690801,220.53376 82.690811,267.84807 C 82.690811,268.45023 82.772661,269.03011 82.784561,269.62932 C 98.973211,229.10964 136.12428,200.72307 179.37832,200.72307 C 197.51381,200.72307 214.60121,205.69487 229.50332,214.47307 C 214.39770,194.79443 191.17328,182.12931 165.09707,182.12932 z "
         id="path2639" />
      <path
         transform="matrix(0.360048,-0.154733,0.126281,0.293843,-65.43788,111.0844)"
         d="M 404.28573 673.79077 A 35.714287 34.285713 0 1 1  332.85715,673.79077 A 35.714287 34.285713 0 1 1  404.28573 673.79077 z"
         sodipodi:ry="34.285713"
         sodipodi:rx="35.714287"
         sodipodi:cy="673.79077"
         sodipodi:cx="368.57144"
         id="path2711"
         style="fill:#ffffff;fill-opacity:1.0000000;stroke:none;stroke-width:3.7500000;stroke-linecap:round;stroke-linejoin:round;stroke-miterlimit:4.0000000;stroke-dasharray:none;stroke-opacity:1.0000000"
         sodipodi:type="arc" />
    </g>
    <g
       transform="translate(-11.31320,600.6095)"
       id="g2913">
      <path
         sodipodi:type="arc"
         style="fill:#646464;fill-opacity:1.0000000;stroke:none;stroke-width:6.2500000;stroke-linecap:round;stroke-linejoin:round;stroke-miterlimit:4.0000000;stroke-dasharray:none;stroke-opacity:1.0000000"
         id="path2725"
         sodipodi:cx="545.48236"
         sodipodi:cy="423.03714"
         sodipodi:rx="193.94930"
         sodipodi:ry="83.842659"
         d="M 739.43166 423.03714 A 193.94930 83.842659 0 1 1  351.53307,423.03714 A 193.94930 83.842659 0 1 1  739.43166 423.03714 z"
         transform="matrix(0.994046,0.108960,-0.108960,0.994046,37.22000,-220.5617)" />
      <path
         sodipodi:nodetypes="cszzsz"
         id="path2737"
         d="M 477.07545,364.50363 C 349.29558,304.99009 420.65512,130.19036 552.74474,37.982277 C 631.91317,-17.282993 524.29937,73.450907 567.25001,97.585777 C 610.79702,122.05577 641.41901,51.934277 630.98448,81.494347 C 620.38218,111.52970 597.56200,142.05089 632.45620,194.97921 C 684.07824,273.28070 606.02810,424.56338 477.07545,364.50363 z "
         style="fill:#0286d5;fill-opacity:1.0000000;fill-rule:evenodd;stroke:#ffffff;stroke-width:20.000000;stroke-linecap:butt;stroke-linejoin:miter;stroke-miterlimit:4.0000000;stroke-dasharray:none;stroke-opacity:1.0000000" />
      <path
         style="stroke-opacity:1.0000000;stroke-dasharray:none;stroke-miterlimit:4.0000000;stroke-linejoin:miter;stroke-linecap:butt;stroke-width:6.2500000;stroke:none;fill-rule:evenodd;fill-opacity:1.0000000;fill:#0076c8"
         d="M 477.07545,364.50363 C 349.29558,304.99009 420.65512,130.19036 552.74474,37.982277 C 631.91317,-17.282993 524.29937,73.450907 567.25001,97.585777 C 610.79702,122.05577 641.41901,51.934277 630.98448,81.494347 C 620.38218,111.52970 597.56200,142.05089 632.45620,194.97921 C 684.07824,273.28070 606.02810,424.56338 477.07545,364.50363 z "
         id="path2715"
         sodipodi:nodetypes="cszzsz" />
      <path
         transform="matrix(1.000000,0.110982,0.000000,0.952598,383.2662,-401.6406)"
         d="M 187.14285 688.07648 A 73.571426 90.000000 0 1 1  40.000000,688.07648 A 73.571426 90.000000 0 1 1  187.14285 688.07648 z"
         sodipodi:ry="90.000000"
         sodipodi:rx="73.571426"
         sodipodi:cy="688.07648"
         sodipodi:cx="113.57143"
         id="path2717"
         style="fill:#ffffff;fill-opacity:1.0000000;stroke:none;stroke-width:3.7500000;stroke-linecap:round;stroke-linejoin:round;stroke-miterlimit:4.0000000;stroke-dasharray:none;stroke-opacity:1.0000000"
         sodipodi:type="arc" />
      <path
         id="path2719"
         d="M 489.93141,187.40154 C 466.77043,187.57478 447.12828,201.81367 436.90016,223.71404 C 449.69018,212.07538 466.38507,205.96126 484.71266,207.99529 C 524.83639,212.44829 557.40016,253.98856 557.40016,300.74529 C 557.40016,303.36065 557.25581,305.93103 557.05641,308.46404 C 561.67030,298.33305 564.33766,286.63297 564.33766,273.90154 C 564.33766,230.47516 534.10348,191.88114 496.83766,187.74529 C 494.50855,187.48680 492.20000,187.38457 489.93141,187.40154 z "
         style="fill:#646464;fill-opacity:1.0000000;stroke:none;stroke-width:3.7500000;stroke-linecap:round;stroke-linejoin:round;stroke-miterlimit:4.0000000;stroke-dasharray:none;stroke-opacity:1.0000000" />
      <path
         transform="matrix(1.192308,0.235200,0.000000,1.175247,348.3950,-583.3077)"
         d="M 145.46196 702.84943 A 26.263966 34.345188 0 1 1  92.934032,702.84943 A 26.263966 34.345188 0 1 1  145.46196 702.84943 z"
         sodipodi:ry="34.345188"
         sodipodi:rx="26.263966"
         sodipodi:cy="702.84943"
         sodipodi:cx="119.19800"
         id="path2721"
         style="fill:#646464;fill-opacity:1.0000000;stroke:none;stroke-width:3.7500000;stroke-linecap:round;stroke-linejoin:round;stroke-miterlimit:4.0000000;stroke-dasharray:none;stroke-opacity:1.0000000"
         sodipodi:type="arc" />
      <path
         sodipodi:type="arc"
         style="fill:#ffffff;fill-opacity:1.0000000;stroke:none;stroke-width:3.7500000;stroke-linecap:round;stroke-linejoin:round;stroke-miterlimit:4.0000000;stroke-dasharray:none;stroke-opacity:1.0000000"
         id="path2723"
         sodipodi:cx="119.19800"
         sodipodi:cy="702.84943"
         sodipodi:rx="26.263966"
         sodipodi:ry="34.345188"
         d="M 145.46196 702.84943 A 26.263966 34.345188 0 1 1  92.934032,702.84943 A 26.263966 34.345188 0 1 1  145.46196 702.84943 z"
         transform="matrix(0.494836,-8.154033e-2,0.000000,0.361295,419.4105,6.329427)" />
    </g>
    <g
       transform="translate(-313.2977,-240.9327)"
       id="g2922">
      <path
         sodipodi:nodetypes="cszzsz"
         id="path2727"
         d="M 483.13637,788.76770 C 355.35650,729.25416 426.71604,554.45443 558.80566,462.24635 C 637.97409,406.98108 530.36029,497.71498 573.31093,521.84985 C 616.85794,546.31984 647.47993,476.19835 637.04540,505.75842 C 626.44310,535.79377 603.62292,566.31496 638.51712,619.24328 C 690.13916,697.54477 612.08902,848.82745 483.13637,788.76770 z "
         style="stroke-opacity:1.0000000;stroke-dasharray:none;stroke-miterlimit:4.0000000;stroke-linejoin:miter;stroke-linecap:butt;stroke-width:6.2500000;stroke:#ffffff;fill-rule:evenodd;fill-opacity:1.0000000;fill:#0076c8" />
      <g
         id="g2754"
         transform="matrix(1.069375,0.000000,0.000000,1.069375,-37.13450,-47.48194)">
        <g
           id="g2759">
          <path
             style="fill:#ffffff;fill-opacity:1.0000000;stroke:none;stroke-width:20.000000;stroke-linecap:round;stroke-linejoin:round;stroke-miterlimit:4.0000000;stroke-dasharray:none;stroke-opacity:1.0000000"
             d="M 519.90625,627.09375 C 490.72607,630.87384 461.07387,646.36648 447.90625,673.75000 C 448.85251,680.48809 456.02841,671.91440 459.25000,670.56250 C 507.95204,640.73586 575.62113,644.06175 619.71875,680.96875 C 626.57584,681.07480 619.35851,671.97704 618.08593,668.58750 C 601.11952,639.90204 566.45738,626.34031 534.25000,626.21875 C 529.46875,626.51042 524.68750,626.80208 519.90625,627.09375 z "
             id="path2739" />
          <path
             style="fill:#ffffff;fill-opacity:1.0000000;stroke:none;stroke-width:20.000000;stroke-linecap:round;stroke-linejoin:round;stroke-miterlimit:4.0000000;stroke-dasharray:none;stroke-opacity:1.0000000"
             d="M 526.71875,678.12500 C 510.19341,680.32351 492.51170,689.21512 486.11224,705.34091 C 489.17600,710.36827 495.24654,701.53154 499.54856,700.67904 C 525.58584,688.02149 559.05306,690.67091 581.46875,709.53125 C 588.27090,709.70153 581.20733,700.57233 579.17634,697.64167 C 567.21889,681.82040 545.80091,675.98676 526.71875,678.12500 z "
             id="path2744" />
          <path
             style="fill:#ffffff;fill-opacity:1.0000000;stroke:none;stroke-width:20.000000;stroke-linecap:round;stroke-linejoin:round;stroke-miterlimit:4.0000000;stroke-dasharray:none;stroke-opacity:1.0000000"
             d="M 534.81250,724.81250 C 524.94043,725.21274 512.74636,729.80488 509.93750,740.15625 C 514.46565,743.41129 519.30335,735.36704 524.66283,735.68661 C 536.34316,732.27672 549.02192,735.77175 558.60701,742.62635 C 563.65886,740.69455 557.19228,734.09388 554.70879,731.67366 C 549.21697,726.99200 541.97294,724.75509 534.81250,724.81250 z "
             id="path2746" />
        </g>
      </g>
    </g>
    <g
       transform="translate(78.00427,-319.0382)"
       id="g3071">
      <text
         sodipodi:linespacing="100.00000%"
         id="text2600"
         y="447.27304"
         x="113.87891"
         style="font-size:36.000000;font-style:normal;font-variant:normal;font-weight:normal;font-stretch:normal;line-height:100.00000%;writing-mode:lr-tb;text-anchor:start;fill:#000000;fill-opacity:1.0000000;stroke:none;stroke-width:1.0000000px;stroke-linecap:butt;stroke-linejoin:miter;stroke-opacity:1.0000000;font-family:Trebuchet MS"
         xml:space="preserve"><tspan
           id="tspan2606"
           sodipodi:role="line"
           x="113.87891"
           y="447.27304">xmms<tspan
   id="tspan2604"
   style="font-size:36.000000;font-style:normal;font-variant:normal;font-weight:normal;font-stretch:normal;line-height:100.00000%;writing-mode:lr-tb;text-anchor:start;font-family:Trebuchet MS">2</tspan></tspan></text>
      <text
         xml:space="preserve"
         style="font-size:20.000000;font-style:normal;font-variant:normal;font-weight:normal;font-stretch:normal;line-height:120.00000%;writing-mode:lr-tb;text-anchor:start;fill:#000000;fill-opacity:1.0000000;stroke:none;stroke-width:1.0000000px;stroke-linecap:butt;stroke-linejoin:miter;stroke-opacity:1.0000000;font-family:Trebuchet MS"
         x="233.87891"
         y="441.27304"
         id="text2609"
         sodipodi:linespacing="120.00000%"><tspan
           y="441.27304"
           x="233.87891"
           id="tspan2615"
           sodipodi:role="line">logo concepts by AJ Ashton</tspan><tspan
           id="tspan2619"
           y="465.27304"
           x="233.87891"
           sodipodi:role="line">aj.ashton@gmail.com</tspan></text>
    </g>
  </g>
</svg>
